{
  "accessors": [
    {
      "bufferView": 2,
      "componentType": 5126,
      "count": 3216,
      "max": [
        7.662067413330078,
        2.137629985809326,
        7.662434101104736
      ],
      "min": [
        -7.662424087524414,
        -0.4312058687210083,
        -7.661925792694092
      ],
      "type": "VEC3"
    },
    {
      "bufferView": 2,
      "byteOffset": 38592,
      "componentType": 5126,
      "count": 3216,
      "max": [
        0.9999986290931702,
        0.005920675583183765,
        0.9999319314956665
      ],
      "min": [
        -0.9999163746833801,
        -0.005920675583183765,
        -0.9999904632568359
      ],
      "type": "VEC3"
    },
    {
      "bufferView": 1,
      "componentType": 5126,
      "count": 3216,
      "max": [
        1.0,
        1.0
      ],
      "min": [
        0.0,
        -5.394564347280553e-19
      ],
      "type": "VEC2"
    },
    {
      "bufferView": 0,
      "componentType": 5125,
      "count": 4824,
      "type": "SCALAR"
    },
    {
      "bufferView": 2,
      "byteOffset": 77184,
      "componentType": 5126,
      "count": 26056,
      "max": [
        7.662433624267578,
        2.1076889038085938,
        7.662434101104736
      ],
      "min": [
        -7.662424087524414,
        -0.4017966389656067,
        -7.662436485290527
      ],
      "type": "VEC3"
    },
    {
      "bufferView": 2,
      "byteOffset": 389856,
      "componentType": 5126,
      "count": 26056,
      "max": [
        0.9999891519546509,
        0.35567617416381836,
        0.9999970197677612
      ],
      "min": [
        -0.9999877214431763,
        -0.15920640528202057,
        -0.9999647736549377
      ],
      "type": "VEC3"
    },
    {
      "bufferView": 1,
      "byteOffset": 25728,
      "componentType": 5126,
      "count": 26056,
      "max": [
        1.0,
        1.0
      ],
      "min": [
        0.0,
        -5.394564347280553e-19
      ],
      "type": "VEC2"
    },
    {
      "bufferView": 0,
      "byteOffset": 19296,
      "componentType": 5125,
      "count": 50586,
      "type": "SCALAR"
    },
    {
      "bufferView": 2,
      "byteOffset": 702528,
      "componentType": 5126,
      "count": 33092,
      "max": [
        7.6623616218566895,
        1.3952776193618774,
        7.662436485290527
      ],
      "min": [
        -7.662433624267578,
        0.14681226015090942,
        -7.662409782409668
      ],
      "type": "VEC3"
    },
    {
      "bufferView": 2,
      "byteOffset": 1099632,
      "componentType": 5126,
      "count": 33092,
      "max": [
        0.9999452829360962,
        0.0241597481071949,
        0.9999953508377075
      ],
      "min": [
        -0.9999951124191284,
        -0.2668404281139374,
        -0.9999694228172302
      ],
      "type": "VEC3"
    },
    {
      "bufferView": 1,
      "byteOffset": 234176,
      "componentType": 5126,
      "count": 33092,
      "max": [
        1.0,
        1.0
      ],
      "min": [
        0.0,
        -5.394564347280553e-19
      ],
      "type": "VEC2"
    },
    {
      "bufferView": 0,
      "byteOffset": 221640,
      "componentType": 5125,
      "count": 66123,
      "type": "SCALAR"
    },
    {
      "bufferView": 3,
      "componentType": 5126,
      "count": 3000,
      "max": [
        100.0
      ],
      "min": [
        0.03333333507180214
      ],
      "type": "SCALAR"
    },
    {
      "bufferView": 4,
      "componentType": 5126,
      "count": 3000,
      "max": [
        8.362402916684025e-17,
        1.0,
        8.362402916684025e-17,
        1.0
      ],
      "min": [
        -8.659556632959614e-17,
        -0.8659672737121582,
        -8.659556632959614e-17,
        -0.49919357895851135
      ],
      "type": "VEC4"
    }
  ],
  "animations": [
    {
      "channels": [
        {
          "sampler": 0,
          "target": {
            "node": 4,
            "path": "rotation"
          }
        }
      ],
      "name": "Take 001",
      "samplers": [
        {
          "input": 12,
          "interpolation": "LINEAR",
          "output": 13
        }
      ]
    }
  ],
  "asset": {
    "extras": {
      "author": "𝔼ℕ𝔼𝔸 𝕃𝔼 𝔽𝕆ℕ𝕊 (https://sketchfab.com/enealefons)",
      "license": "CC-BY-4.0 (http://creativecommons.org/licenses/by/4.0/)",
      "source": "https://sketchfab.com/3d-models/the-circle-uxrzone-c51438760d7047e09e8e162ca65d51c1",
      "title": "THE CIRCLE - UXRZONE"
    },
    "generator": "Sketchfab-12.68.0",
    "version": "2.0"
  },
  "bufferViews": [
    {
      "buffer": 0,
      "byteLength": 486132,
      "name": "floatBufferViews",
      "target": 34963
    },
    {
      "buffer": 0,
      "byteLength": 498912,
      "byteOffset": 486132,
      "byteStride": 8,
      "name": "floatBufferViews",
      "target": 34962
    },
    {
      "buffer": 0,
      "byteLength": 1496736,
      "byteOffset": 985044,
      "byteStride": 12,
      "name": "floatBufferViews",
      "target": 34962
    },
    {
      "buffer": 0,
      "byteLength": 12000,
      "byteOffset": 2481780,
      "name": "floatBufferViews"
    },
    {
      "buffer": 0,
      "byteLength": 48000,
      "byteOffset": 2493780,
      "byteStride": 16,
      "name": "floatBufferViews"
    }
  ],
  "buffers": [
    {
      "byteLength": 2541780,
      "uri": "scene.bin"
    }
  ],
  "materials": [
    {
      "doubleSided": true,
      "emissiveFactor": [
        1.0,
        1.0,
        1.0
      ],
      "name": "Material",
      "pbrMetallicRoughness": {
        "baseColorFactor": [
          0.0,
          0.0,
          0.0,
          1.0
        ],
        "metallicFactor": 0.0,
        "roughnessFactor": 0.7340852051527506
      }
    },
    {
      "alphaMode": "BLEND",
      "doubleSided": true,
      "name": "Scene_Material",
      "pbrMetallicRoughness": {
        "baseColorFactor": [
          0.0,
          0.0,
          0.0,
          0.5671661528920344
        ],
        "roughnessFactor": 0.7340852051527506
      }
    },
    {
      "alphaMode": "BLEND",
      "doubleSided": true,
      "emissiveFactor": [
        1.0,
        1.0,
        1.0
      ],
      "name": "Material1",
      "pbrMetallicRoughness": {
        "baseColorFactor": [
          1.0,
          1.0,
          1.0,
          0.9258963695286042
        ],
        "metallicFactor": 0.0,
        "roughnessFactor": 0.7340852051527506
      }
    }
  ],
  "meshes": [
    {
      "name": "polymsh2_Material_0",
      "primitives": [
        {
          "attributes": {
            "NORMAL": 1,
            "POSITION": 0,
            "TEXCOORD_0": 2
          },
          "indices": 3,
          "material": 0,
          "mode": 4
        }
      ]
    },
    {
      "name": "polymsh2_Scene_Material_0",
      "primitives": [
        {
          "attributes": {
            "NORMAL": 5,
            "POSITION": 4,
            "TEXCOORD_0": 6
          },
          "indices": 7,
          "material": 1,
          "mode": 4
        }
      ]
    },
    {
      "name": "polymsh2_Material1_0",
      "primitives": [
        {
          "attributes": {
            "NORMAL": 9,
            "POSITION": 8,
            "TEXCOORD_0": 10
          },
          "indices": 11,
          "material": 2,
          "mode": 4
        }
      ]
    }
  ],
  "nodes": [
    {
      "children": [
        1
      ],
      "matrix": [
        1.0,
        0.0,
        0.0,
        0.0,
        0.0,
        2.220446049250313e-16,
        -1.0,
        0.0,
        0.0,
        1.0,
        2.220446049250313e-16,
        0.0,
        0.0,
        0.0,
        0.0,
        1.0
      ],
      "name": "Sketchfab_model"
    },
    {
      "children": [
        2
      ],
      "matrix": [
        1.0,
        0.0,
        0.0,
        0.0,
        0.0,
        0.0,
        1.0,
        0.0,
        0.0,
        -1.0,
        0.0,
        0.0,
        0.0,
        0.0,
        0.0,
        1.0
      ],
      "name": "04cc929508b64f2b818b1f7279af279b.fbx"
    },
    {
      "children": [
        3
      ],
      "name": "Object_2"
    },
    {
      "children": [
        4
      ],
      "name": "RootNode"
    },
    {
      "children": [
        5,
        6,
        7
      ],
      "name": "polymsh2"
    },
    {
      "mesh": 0,
      "name": "polymsh2_Material_0"
    },
    {
      "mesh": 1,
      "name": "polymsh2_Scene_Material_0"
    },
    {
      "mesh": 2,
      "name": "polymsh2_Material1_0"
    }
  ],
  "scene": 0,
  "scenes": [
    {
      "name": "Sketchfab_Scene",
      "nodes": [
        0
      ]
    }
  ]
}
